<mxfile host="Electron" agent="Mozilla/5.0 (Macintosh; Intel Mac OS X 10_15_7) AppleWebKit/537.36 (KHTML, like Gecko) draw.io/26.0.4 Chrome/128.0.6613.186 Electron/32.2.5 Safari/537.36" version="26.0.4">
  <diagram name="Page-1" id="ZR2IBsVLnwtf3MsfpTM8">
    <mxGraphModel dx="2389" dy="1680" grid="1" gridSize="10" guides="1" tooltips="1" connect="1" arrows="1" fold="1" page="1" pageScale="1" pageWidth="850" pageHeight="1100" math="0" shadow="0">
      <root>
        <mxCell id="0" />
        <mxCell id="1" parent="0" />
        <mxCell id="Z99bt3ekidvF5mvnGr2a-1" value="loops&amp;nbsp;" style="rounded=0;whiteSpace=wrap;html=1;fillColor=#d5e8d4;strokeColor=#82b366;" vertex="1" parent="1">
          <mxGeometry x="365" y="20" width="120" height="20" as="geometry" />
        </mxCell>
        <mxCell id="Z99bt3ekidvF5mvnGr2a-2" value="while" style="rounded=0;whiteSpace=wrap;html=1;fillColor=#e1d5e7;strokeColor=#9673a6;" vertex="1" parent="1">
          <mxGeometry x="70" y="90" width="120" height="20" as="geometry" />
        </mxCell>
        <mxCell id="Z99bt3ekidvF5mvnGr2a-3" value="do while" style="rounded=0;whiteSpace=wrap;html=1;fillColor=#dae8fc;strokeColor=#6c8ebf;" vertex="1" parent="1">
          <mxGeometry x="365" y="90" width="120" height="20" as="geometry" />
        </mxCell>
        <mxCell id="Z99bt3ekidvF5mvnGr2a-4" value="for" style="rounded=0;whiteSpace=wrap;html=1;fillColor=#f5f5f5;strokeColor=#666666;fontColor=#333333;" vertex="1" parent="1">
          <mxGeometry x="645" y="90" width="120" height="20" as="geometry" />
        </mxCell>
        <mxCell id="Z99bt3ekidvF5mvnGr2a-5" value="fixed itearions" style="text;html=1;align=center;verticalAlign=middle;whiteSpace=wrap;rounded=0;" vertex="1" parent="1">
          <mxGeometry x="655" y="120" width="110" height="30" as="geometry" />
        </mxCell>
        <mxCell id="Z99bt3ekidvF5mvnGr2a-6" value="conditional iterations" style="text;html=1;align=center;verticalAlign=middle;whiteSpace=wrap;rounded=0;" vertex="1" parent="1">
          <mxGeometry x="65" y="120" width="130" height="30" as="geometry" />
        </mxCell>
        <mxCell id="Z99bt3ekidvF5mvnGr2a-7" value="conditional iterations" style="text;html=1;align=center;verticalAlign=middle;whiteSpace=wrap;rounded=0;" vertex="1" parent="1">
          <mxGeometry x="360" y="120" width="130" height="30" as="geometry" />
        </mxCell>
        <mxCell id="Z99bt3ekidvF5mvnGr2a-24" style="edgeStyle=orthogonalEdgeStyle;rounded=0;orthogonalLoop=1;jettySize=auto;html=1;entryX=0.5;entryY=0;entryDx=0;entryDy=0;" edge="1" parent="1" source="Z99bt3ekidvF5mvnGr2a-9" target="Z99bt3ekidvF5mvnGr2a-10">
          <mxGeometry relative="1" as="geometry" />
        </mxCell>
        <mxCell id="Z99bt3ekidvF5mvnGr2a-9" value="start" style="rounded=1;whiteSpace=wrap;html=1;arcSize=50;fillColor=#e1d5e7;strokeColor=#9673a6;" vertex="1" parent="1">
          <mxGeometry x="87.5" y="190" width="85" height="30" as="geometry" />
        </mxCell>
        <mxCell id="Z99bt3ekidvF5mvnGr2a-22" value="" style="edgeStyle=orthogonalEdgeStyle;rounded=0;orthogonalLoop=1;jettySize=auto;html=1;" edge="1" parent="1" source="Z99bt3ekidvF5mvnGr2a-10" target="Z99bt3ekidvF5mvnGr2a-12">
          <mxGeometry relative="1" as="geometry" />
        </mxCell>
        <mxCell id="Z99bt3ekidvF5mvnGr2a-10" value="input&amp;nbsp;&lt;br&gt;read" style="shape=parallelogram;perimeter=parallelogramPerimeter;whiteSpace=wrap;html=1;fixedSize=1;fillColor=#e1d5e7;strokeColor=#9673a6;" vertex="1" parent="1">
          <mxGeometry x="85" y="250" width="90" height="40" as="geometry" />
        </mxCell>
        <mxCell id="Z99bt3ekidvF5mvnGr2a-13" style="edgeStyle=orthogonalEdgeStyle;rounded=0;orthogonalLoop=1;jettySize=auto;html=1;" edge="1" parent="1" source="Z99bt3ekidvF5mvnGr2a-12" target="Z99bt3ekidvF5mvnGr2a-14">
          <mxGeometry relative="1" as="geometry">
            <mxPoint x="210" y="380" as="targetPoint" />
          </mxGeometry>
        </mxCell>
        <mxCell id="Z99bt3ekidvF5mvnGr2a-16" value="true" style="edgeLabel;html=1;align=center;verticalAlign=middle;resizable=0;points=[];" vertex="1" connectable="0" parent="Z99bt3ekidvF5mvnGr2a-13">
          <mxGeometry x="-0.2281" relative="1" as="geometry">
            <mxPoint as="offset" />
          </mxGeometry>
        </mxCell>
        <mxCell id="Z99bt3ekidvF5mvnGr2a-17" style="edgeStyle=orthogonalEdgeStyle;rounded=0;orthogonalLoop=1;jettySize=auto;html=1;entryX=0;entryY=0.5;entryDx=0;entryDy=0;" edge="1" parent="1" source="Z99bt3ekidvF5mvnGr2a-12" target="Z99bt3ekidvF5mvnGr2a-18">
          <mxGeometry relative="1" as="geometry">
            <mxPoint x="70" y="470" as="targetPoint" />
            <Array as="points">
              <mxPoint x="60" y="335" />
              <mxPoint x="60" y="470" />
            </Array>
          </mxGeometry>
        </mxCell>
        <mxCell id="Z99bt3ekidvF5mvnGr2a-19" value="false" style="edgeLabel;html=1;align=center;verticalAlign=middle;resizable=0;points=[];" vertex="1" connectable="0" parent="Z99bt3ekidvF5mvnGr2a-17">
          <mxGeometry x="-0.2753" y="-1" relative="1" as="geometry">
            <mxPoint as="offset" />
          </mxGeometry>
        </mxCell>
        <mxCell id="Z99bt3ekidvF5mvnGr2a-12" value="condition" style="rhombus;whiteSpace=wrap;html=1;fillColor=#e1d5e7;strokeColor=#9673a6;" vertex="1" parent="1">
          <mxGeometry x="100" y="310" width="60" height="50" as="geometry" />
        </mxCell>
        <mxCell id="Z99bt3ekidvF5mvnGr2a-15" style="edgeStyle=orthogonalEdgeStyle;rounded=0;orthogonalLoop=1;jettySize=auto;html=1;entryX=0.5;entryY=1;entryDx=0;entryDy=0;" edge="1" parent="1" source="Z99bt3ekidvF5mvnGr2a-14" target="Z99bt3ekidvF5mvnGr2a-12">
          <mxGeometry relative="1" as="geometry" />
        </mxCell>
        <mxCell id="Z99bt3ekidvF5mvnGr2a-14" value="iteration code" style="whiteSpace=wrap;html=1;aspect=fixed;fillColor=#e1d5e7;strokeColor=#9673a6;" vertex="1" parent="1">
          <mxGeometry x="190" y="370" width="60" height="60" as="geometry" />
        </mxCell>
        <mxCell id="Z99bt3ekidvF5mvnGr2a-21" value="" style="edgeStyle=orthogonalEdgeStyle;rounded=0;orthogonalLoop=1;jettySize=auto;html=1;" edge="1" parent="1" source="Z99bt3ekidvF5mvnGr2a-18" target="Z99bt3ekidvF5mvnGr2a-20">
          <mxGeometry relative="1" as="geometry" />
        </mxCell>
        <mxCell id="Z99bt3ekidvF5mvnGr2a-18" value="input&amp;nbsp;&lt;br&gt;read" style="shape=parallelogram;perimeter=parallelogramPerimeter;whiteSpace=wrap;html=1;fixedSize=1;fillColor=#e1d5e7;strokeColor=#9673a6;" vertex="1" parent="1">
          <mxGeometry x="87.5" y="450" width="90" height="40" as="geometry" />
        </mxCell>
        <mxCell id="Z99bt3ekidvF5mvnGr2a-20" value="end" style="rounded=1;whiteSpace=wrap;html=1;arcSize=50;fillColor=#e1d5e7;strokeColor=#9673a6;" vertex="1" parent="1">
          <mxGeometry x="90" y="530" width="85" height="30" as="geometry" />
        </mxCell>
        <mxCell id="Z99bt3ekidvF5mvnGr2a-25" style="edgeStyle=orthogonalEdgeStyle;rounded=0;orthogonalLoop=1;jettySize=auto;html=1;entryX=0.5;entryY=0;entryDx=0;entryDy=0;" edge="1" parent="1" source="Z99bt3ekidvF5mvnGr2a-26" target="Z99bt3ekidvF5mvnGr2a-28">
          <mxGeometry relative="1" as="geometry" />
        </mxCell>
        <mxCell id="Z99bt3ekidvF5mvnGr2a-26" value="start" style="rounded=1;whiteSpace=wrap;html=1;arcSize=50;fillColor=#dae8fc;strokeColor=#6c8ebf;" vertex="1" parent="1">
          <mxGeometry x="382.5" y="170" width="85" height="30" as="geometry" />
        </mxCell>
        <mxCell id="Z99bt3ekidvF5mvnGr2a-39" style="edgeStyle=orthogonalEdgeStyle;rounded=0;orthogonalLoop=1;jettySize=auto;html=1;entryX=0.5;entryY=0;entryDx=0;entryDy=0;" edge="1" parent="1" source="Z99bt3ekidvF5mvnGr2a-28" target="Z99bt3ekidvF5mvnGr2a-35">
          <mxGeometry relative="1" as="geometry" />
        </mxCell>
        <mxCell id="Z99bt3ekidvF5mvnGr2a-28" value="input&amp;nbsp;&lt;br&gt;read" style="shape=parallelogram;perimeter=parallelogramPerimeter;whiteSpace=wrap;html=1;fixedSize=1;fillColor=#dae8fc;strokeColor=#6c8ebf;" vertex="1" parent="1">
          <mxGeometry x="380" y="230" width="90" height="40" as="geometry" />
        </mxCell>
        <mxCell id="Z99bt3ekidvF5mvnGr2a-45" style="edgeStyle=orthogonalEdgeStyle;rounded=0;orthogonalLoop=1;jettySize=auto;html=1;entryX=0.5;entryY=0;entryDx=0;entryDy=0;" edge="1" parent="1" source="Z99bt3ekidvF5mvnGr2a-33" target="Z99bt3ekidvF5mvnGr2a-37">
          <mxGeometry relative="1" as="geometry" />
        </mxCell>
        <mxCell id="Z99bt3ekidvF5mvnGr2a-46" value="false" style="edgeLabel;html=1;align=center;verticalAlign=middle;resizable=0;points=[];" vertex="1" connectable="0" parent="Z99bt3ekidvF5mvnGr2a-45">
          <mxGeometry x="-0.2242" relative="1" as="geometry">
            <mxPoint as="offset" />
          </mxGeometry>
        </mxCell>
        <mxCell id="Z99bt3ekidvF5mvnGr2a-33" value="condition" style="rhombus;whiteSpace=wrap;html=1;fillColor=#dae8fc;strokeColor=#6c8ebf;" vertex="1" parent="1">
          <mxGeometry x="395" y="390" width="60" height="50" as="geometry" />
        </mxCell>
        <mxCell id="Z99bt3ekidvF5mvnGr2a-41" style="edgeStyle=orthogonalEdgeStyle;rounded=0;orthogonalLoop=1;jettySize=auto;html=1;entryX=0.5;entryY=0;entryDx=0;entryDy=0;" edge="1" parent="1" source="Z99bt3ekidvF5mvnGr2a-35" target="Z99bt3ekidvF5mvnGr2a-33">
          <mxGeometry relative="1" as="geometry" />
        </mxCell>
        <mxCell id="Z99bt3ekidvF5mvnGr2a-35" value="iteration code" style="whiteSpace=wrap;html=1;aspect=fixed;fillColor=#dae8fc;strokeColor=#6c8ebf;" vertex="1" parent="1">
          <mxGeometry x="395" y="290" width="60" height="60" as="geometry" />
        </mxCell>
        <mxCell id="Z99bt3ekidvF5mvnGr2a-36" value="" style="edgeStyle=orthogonalEdgeStyle;rounded=0;orthogonalLoop=1;jettySize=auto;html=1;" edge="1" parent="1" source="Z99bt3ekidvF5mvnGr2a-37" target="Z99bt3ekidvF5mvnGr2a-38">
          <mxGeometry relative="1" as="geometry" />
        </mxCell>
        <mxCell id="Z99bt3ekidvF5mvnGr2a-37" value="input&amp;nbsp;&lt;br&gt;read" style="shape=parallelogram;perimeter=parallelogramPerimeter;whiteSpace=wrap;html=1;fixedSize=1;fillColor=#dae8fc;strokeColor=#6c8ebf;" vertex="1" parent="1">
          <mxGeometry x="380" y="495" width="90" height="40" as="geometry" />
        </mxCell>
        <mxCell id="Z99bt3ekidvF5mvnGr2a-38" value="end" style="rounded=1;whiteSpace=wrap;html=1;arcSize=50;fillColor=#dae8fc;strokeColor=#6c8ebf;" vertex="1" parent="1">
          <mxGeometry x="382.5" y="575" width="85" height="30" as="geometry" />
        </mxCell>
        <mxCell id="Z99bt3ekidvF5mvnGr2a-42" style="edgeStyle=orthogonalEdgeStyle;rounded=0;orthogonalLoop=1;jettySize=auto;html=1;entryX=0.994;entryY=0.389;entryDx=0;entryDy=0;entryPerimeter=0;" edge="1" parent="1" source="Z99bt3ekidvF5mvnGr2a-33" target="Z99bt3ekidvF5mvnGr2a-35">
          <mxGeometry relative="1" as="geometry">
            <Array as="points">
              <mxPoint x="475" y="415" />
              <mxPoint x="475" y="313" />
            </Array>
          </mxGeometry>
        </mxCell>
        <mxCell id="Z99bt3ekidvF5mvnGr2a-43" value="true" style="edgeLabel;html=1;align=center;verticalAlign=middle;resizable=0;points=[];" vertex="1" connectable="0" parent="Z99bt3ekidvF5mvnGr2a-42">
          <mxGeometry x="0.1495" y="-2" relative="1" as="geometry">
            <mxPoint as="offset" />
          </mxGeometry>
        </mxCell>
        <mxCell id="Z99bt3ekidvF5mvnGr2a-47" style="edgeStyle=orthogonalEdgeStyle;rounded=0;orthogonalLoop=1;jettySize=auto;html=1;entryX=0.5;entryY=0;entryDx=0;entryDy=0;" edge="1" parent="1" source="Z99bt3ekidvF5mvnGr2a-48" target="Z99bt3ekidvF5mvnGr2a-50">
          <mxGeometry relative="1" as="geometry" />
        </mxCell>
        <mxCell id="Z99bt3ekidvF5mvnGr2a-48" value="start" style="rounded=1;whiteSpace=wrap;html=1;arcSize=50;fillColor=#fad7ac;strokeColor=#b46504;" vertex="1" parent="1">
          <mxGeometry x="665" y="170" width="85" height="30" as="geometry" />
        </mxCell>
        <mxCell id="Z99bt3ekidvF5mvnGr2a-49" style="edgeStyle=orthogonalEdgeStyle;rounded=0;orthogonalLoop=1;jettySize=auto;html=1;entryX=0.5;entryY=0;entryDx=0;entryDy=0;" edge="1" parent="1" source="Z99bt3ekidvF5mvnGr2a-50" target="Z99bt3ekidvF5mvnGr2a-55">
          <mxGeometry relative="1" as="geometry" />
        </mxCell>
        <mxCell id="Z99bt3ekidvF5mvnGr2a-50" value="input&amp;nbsp;&lt;br&gt;read" style="shape=parallelogram;perimeter=parallelogramPerimeter;whiteSpace=wrap;html=1;fixedSize=1;fillColor=#fad7ac;strokeColor=#b46504;" vertex="1" parent="1">
          <mxGeometry x="662.5" y="230" width="90" height="40" as="geometry" />
        </mxCell>
        <mxCell id="Z99bt3ekidvF5mvnGr2a-62" style="edgeStyle=orthogonalEdgeStyle;rounded=0;orthogonalLoop=1;jettySize=auto;html=1;" edge="1" parent="1" source="Z99bt3ekidvF5mvnGr2a-55" target="Z99bt3ekidvF5mvnGr2a-57">
          <mxGeometry relative="1" as="geometry" />
        </mxCell>
        <mxCell id="Z99bt3ekidvF5mvnGr2a-63" style="edgeStyle=orthogonalEdgeStyle;rounded=0;orthogonalLoop=1;jettySize=auto;html=1;exitX=0;exitY=0.5;exitDx=0;exitDy=0;" edge="1" parent="1" source="Z99bt3ekidvF5mvnGr2a-55">
          <mxGeometry relative="1" as="geometry">
            <mxPoint x="740" y="330" as="targetPoint" />
          </mxGeometry>
        </mxCell>
        <mxCell id="Z99bt3ekidvF5mvnGr2a-64" value="n" style="edgeLabel;html=1;align=center;verticalAlign=middle;resizable=0;points=[];" vertex="1" connectable="0" parent="Z99bt3ekidvF5mvnGr2a-63">
          <mxGeometry x="0.2262" y="-1" relative="1" as="geometry">
            <mxPoint as="offset" />
          </mxGeometry>
        </mxCell>
        <mxCell id="Z99bt3ekidvF5mvnGr2a-55" value="iteration code" style="whiteSpace=wrap;html=1;aspect=fixed;fillColor=#fad7ac;strokeColor=#b46504;" vertex="1" parent="1">
          <mxGeometry x="677.5" y="300" width="60" height="60" as="geometry" />
        </mxCell>
        <mxCell id="Z99bt3ekidvF5mvnGr2a-56" value="" style="edgeStyle=orthogonalEdgeStyle;rounded=0;orthogonalLoop=1;jettySize=auto;html=1;" edge="1" parent="1" source="Z99bt3ekidvF5mvnGr2a-57" target="Z99bt3ekidvF5mvnGr2a-58">
          <mxGeometry relative="1" as="geometry" />
        </mxCell>
        <mxCell id="Z99bt3ekidvF5mvnGr2a-57" value="input&amp;nbsp;&lt;br&gt;read" style="shape=parallelogram;perimeter=parallelogramPerimeter;whiteSpace=wrap;html=1;fixedSize=1;fillColor=#fad7ac;strokeColor=#b46504;" vertex="1" parent="1">
          <mxGeometry x="662.5" y="420" width="90" height="40" as="geometry" />
        </mxCell>
        <mxCell id="Z99bt3ekidvF5mvnGr2a-58" value="end" style="rounded=1;whiteSpace=wrap;html=1;arcSize=50;fillColor=#fad7ac;strokeColor=#b46504;" vertex="1" parent="1">
          <mxGeometry x="665" y="500" width="85" height="30" as="geometry" />
        </mxCell>
        <mxCell id="Z99bt3ekidvF5mvnGr2a-65" value="for else" style="rounded=0;whiteSpace=wrap;html=1;fillColor=#f5f5f5;strokeColor=#666666;fontColor=#333333;" vertex="1" parent="1">
          <mxGeometry x="647.5" y="575" width="120" height="20" as="geometry" />
        </mxCell>
        <mxCell id="Z99bt3ekidvF5mvnGr2a-66" value="collections" style="rounded=0;whiteSpace=wrap;html=1;fillColor=#f5f5f5;strokeColor=#666666;fontColor=#333333;" vertex="1" parent="1">
          <mxGeometry x="40" y="670" width="770" height="20" as="geometry" />
        </mxCell>
        <mxCell id="Z99bt3ekidvF5mvnGr2a-67" value="list" style="rounded=1;whiteSpace=wrap;html=1;arcSize=50;fillColor=#bac8d3;strokeColor=#23445d;" vertex="1" parent="1">
          <mxGeometry x="50" y="720" width="120" height="60" as="geometry" />
        </mxCell>
        <mxCell id="Z99bt3ekidvF5mvnGr2a-68" value="tuple" style="rounded=1;whiteSpace=wrap;html=1;arcSize=50;fillColor=#bac8d3;strokeColor=#23445d;" vertex="1" parent="1">
          <mxGeometry x="260" y="720" width="120" height="60" as="geometry" />
        </mxCell>
        <mxCell id="Z99bt3ekidvF5mvnGr2a-69" value="set" style="rounded=1;whiteSpace=wrap;html=1;arcSize=50;fillColor=#bac8d3;strokeColor=#23445d;" vertex="1" parent="1">
          <mxGeometry x="440" y="720" width="120" height="60" as="geometry" />
        </mxCell>
        <mxCell id="Z99bt3ekidvF5mvnGr2a-70" value="dic" style="rounded=1;whiteSpace=wrap;html=1;arcSize=50;fillColor=#fad9d5;strokeColor=#ae4132;" vertex="1" parent="1">
          <mxGeometry x="677.5" y="720" width="120" height="60" as="geometry" />
        </mxCell>
        <mxCell id="Z99bt3ekidvF5mvnGr2a-71" value="casting" style="rounded=1;whiteSpace=wrap;html=1;arcSize=50;fillColor=#fad7ac;strokeColor=#b46504;" vertex="1" parent="1">
          <mxGeometry x="160" y="810" width="120" height="60" as="geometry" />
        </mxCell>
        <mxCell id="Z99bt3ekidvF5mvnGr2a-72" value="casting" style="rounded=1;whiteSpace=wrap;html=1;arcSize=50;fillColor=#fad7ac;strokeColor=#b46504;" vertex="1" parent="1">
          <mxGeometry x="350" y="820" width="120" height="60" as="geometry" />
        </mxCell>
        <mxCell id="Z99bt3ekidvF5mvnGr2a-73" value="str" style="rounded=1;whiteSpace=wrap;html=1;arcSize=50;fillColor=#bac8d3;strokeColor=#23445d;" vertex="1" parent="1">
          <mxGeometry x="250" y="930" width="120" height="60" as="geometry" />
        </mxCell>
        <mxCell id="Z99bt3ekidvF5mvnGr2a-74" value="XLM" style="rounded=1;whiteSpace=wrap;html=1;arcSize=50;fillColor=#d0cee2;strokeColor=#56517e;" vertex="1" parent="1">
          <mxGeometry x="730" y="790" width="67.5" height="30" as="geometry" />
        </mxCell>
        <mxCell id="Z99bt3ekidvF5mvnGr2a-76" value="json" style="rounded=1;whiteSpace=wrap;html=1;arcSize=50;fillColor=#d0cee2;strokeColor=#56517e;" vertex="1" parent="1">
          <mxGeometry x="730" y="830" width="67.5" height="30" as="geometry" />
        </mxCell>
        <mxCell id="Z99bt3ekidvF5mvnGr2a-77" value="yml" style="rounded=1;whiteSpace=wrap;html=1;arcSize=50;fillColor=#d0cee2;strokeColor=#56517e;" vertex="1" parent="1">
          <mxGeometry x="730" y="870" width="67.5" height="30" as="geometry" />
        </mxCell>
        <mxCell id="Z99bt3ekidvF5mvnGr2a-78" value="Rest api" style="rounded=1;whiteSpace=wrap;html=1;arcSize=50;fillColor=#d0cee2;strokeColor=#56517e;rotation=-91;" vertex="1" parent="1">
          <mxGeometry x="650.35" y="830" width="107.5" height="30" as="geometry" />
        </mxCell>
        <mxCell id="Z99bt3ekidvF5mvnGr2a-79" value="list" style="rounded=1;whiteSpace=wrap;html=1;arcSize=50;fillColor=#bac8d3;strokeColor=#23445d;" vertex="1" parent="1">
          <mxGeometry x="347.5" y="1150" width="120" height="60" as="geometry" />
        </mxCell>
        <mxCell id="Z99bt3ekidvF5mvnGr2a-82" value="mango" style="rounded=0;whiteSpace=wrap;html=1;" vertex="1" parent="1">
          <mxGeometry x="305" y="1330" width="72.5" height="70" as="geometry" />
        </mxCell>
        <mxCell id="Z99bt3ekidvF5mvnGr2a-83" value="&lt;meta charset=&quot;utf-8&quot;&gt;&lt;span style=&quot;color: rgb(0, 0, 0); font-family: Helvetica; font-size: 12px; font-style: normal; font-variant-ligatures: normal; font-variant-caps: normal; font-weight: 400; letter-spacing: normal; orphans: 2; text-align: center; text-indent: 0px; text-transform: none; widows: 2; word-spacing: 0px; -webkit-text-stroke-width: 0px; white-space: normal; background-color: rgb(251, 251, 251); text-decoration-thickness: initial; text-decoration-style: initial; text-decoration-color: initial; display: inline !important; float: none;&quot;&gt;apple&lt;/span&gt;" style="rounded=0;whiteSpace=wrap;html=1;" vertex="1" parent="1">
          <mxGeometry x="160" y="1330" width="72.5" height="70" as="geometry" />
        </mxCell>
        <mxCell id="Z99bt3ekidvF5mvnGr2a-85" value="&lt;meta charset=&quot;utf-8&quot;&gt;&lt;span style=&quot;color: rgb(0, 0, 0); font-family: Helvetica; font-size: 12px; font-style: normal; font-variant-ligatures: normal; font-variant-caps: normal; font-weight: 400; letter-spacing: normal; orphans: 2; text-align: center; text-indent: 0px; text-transform: none; widows: 2; word-spacing: 0px; -webkit-text-stroke-width: 0px; white-space: normal; background-color: rgb(251, 251, 251); text-decoration-thickness: initial; text-decoration-style: initial; text-decoration-color: initial; display: inline !important; float: none;&quot;&gt;banana&lt;/span&gt;" style="rounded=0;whiteSpace=wrap;html=1;" vertex="1" parent="1">
          <mxGeometry x="232.5" y="1330" width="72.5" height="70" as="geometry" />
        </mxCell>
        <mxCell id="Z99bt3ekidvF5mvnGr2a-87" value="melon" style="rounded=0;whiteSpace=wrap;html=1;" vertex="1" parent="1">
          <mxGeometry x="377.5" y="1330" width="72.5" height="70" as="geometry" />
        </mxCell>
        <mxCell id="Z99bt3ekidvF5mvnGr2a-112" style="edgeStyle=orthogonalEdgeStyle;rounded=0;orthogonalLoop=1;jettySize=auto;html=1;entryX=1;entryY=0;entryDx=0;entryDy=0;" edge="1" parent="1" source="Z99bt3ekidvF5mvnGr2a-88" target="Z99bt3ekidvF5mvnGr2a-108">
          <mxGeometry relative="1" as="geometry">
            <Array as="points">
              <mxPoint x="620" y="1365" />
              <mxPoint x="620" y="1450" />
            </Array>
          </mxGeometry>
        </mxCell>
        <mxCell id="Z99bt3ekidvF5mvnGr2a-113" value="remove/pop" style="edgeLabel;html=1;align=center;verticalAlign=middle;resizable=0;points=[];" vertex="1" connectable="0" parent="Z99bt3ekidvF5mvnGr2a-112">
          <mxGeometry x="0.3561" relative="1" as="geometry">
            <mxPoint as="offset" />
          </mxGeometry>
        </mxCell>
        <mxCell id="Z99bt3ekidvF5mvnGr2a-88" value="&lt;meta charset=&quot;utf-8&quot;&gt;&lt;span style=&quot;color: rgb(0, 0, 0); font-family: Helvetica; font-size: 12px; font-style: normal; font-variant-ligatures: normal; font-variant-caps: normal; font-weight: 400; letter-spacing: normal; orphans: 2; text-align: center; text-indent: 0px; text-transform: none; widows: 2; word-spacing: 0px; -webkit-text-stroke-width: 0px; white-space: normal; background-color: rgb(251, 251, 251); text-decoration-thickness: initial; text-decoration-style: initial; text-decoration-color: initial; display: inline !important; float: none;&quot;&gt;peach&lt;/span&gt;" style="rounded=0;whiteSpace=wrap;html=1;" vertex="1" parent="1">
          <mxGeometry x="450" y="1330" width="72.5" height="70" as="geometry" />
        </mxCell>
        <mxCell id="Z99bt3ekidvF5mvnGr2a-89" value="2" style="rounded=0;whiteSpace=wrap;html=1;" vertex="1" parent="1">
          <mxGeometry x="305" y="1300" width="72.5" height="30" as="geometry" />
        </mxCell>
        <mxCell id="Z99bt3ekidvF5mvnGr2a-90" value="0" style="rounded=0;whiteSpace=wrap;html=1;" vertex="1" parent="1">
          <mxGeometry x="160" y="1300" width="72.5" height="30" as="geometry" />
        </mxCell>
        <mxCell id="Z99bt3ekidvF5mvnGr2a-91" value="1" style="rounded=0;whiteSpace=wrap;html=1;" vertex="1" parent="1">
          <mxGeometry x="232.5" y="1300" width="72.5" height="30" as="geometry" />
        </mxCell>
        <mxCell id="Z99bt3ekidvF5mvnGr2a-93" value="3" style="rounded=0;whiteSpace=wrap;html=1;" vertex="1" parent="1">
          <mxGeometry x="377.5" y="1300" width="72.5" height="30" as="geometry" />
        </mxCell>
        <mxCell id="Z99bt3ekidvF5mvnGr2a-94" value="4" style="rounded=0;whiteSpace=wrap;html=1;" vertex="1" parent="1">
          <mxGeometry x="450" y="1300" width="72.5" height="30" as="geometry" />
        </mxCell>
        <mxCell id="Z99bt3ekidvF5mvnGr2a-95" value="-4" style="rounded=0;whiteSpace=wrap;html=1;" vertex="1" parent="1">
          <mxGeometry x="305" y="1400" width="72.5" height="30" as="geometry" />
        </mxCell>
        <mxCell id="Z99bt3ekidvF5mvnGr2a-96" value="-6" style="rounded=0;whiteSpace=wrap;html=1;" vertex="1" parent="1">
          <mxGeometry x="160" y="1400" width="72.5" height="30" as="geometry" />
        </mxCell>
        <mxCell id="Z99bt3ekidvF5mvnGr2a-97" value="-5" style="rounded=0;whiteSpace=wrap;html=1;" vertex="1" parent="1">
          <mxGeometry x="232.5" y="1400" width="72.5" height="30" as="geometry" />
        </mxCell>
        <mxCell id="Z99bt3ekidvF5mvnGr2a-99" value="-3" style="rounded=0;whiteSpace=wrap;html=1;" vertex="1" parent="1">
          <mxGeometry x="377.5" y="1400" width="72.5" height="30" as="geometry" />
        </mxCell>
        <mxCell id="Z99bt3ekidvF5mvnGr2a-100" value="-2" style="rounded=0;whiteSpace=wrap;html=1;" vertex="1" parent="1">
          <mxGeometry x="450" y="1400" width="72.5" height="30" as="geometry" />
        </mxCell>
        <mxCell id="Z99bt3ekidvF5mvnGr2a-101" value="L1 = [&#39;apple&#39;,&#39;banana&#39;,&#39;mango&#39;,&#39;melon&#39;,&#39;peach&#39;]" style="text;html=1;align=center;verticalAlign=middle;whiteSpace=wrap;rounded=0;" vertex="1" parent="1">
          <mxGeometry x="232.5" y="1220" width="325" height="40" as="geometry" />
        </mxCell>
        <mxCell id="Z99bt3ekidvF5mvnGr2a-103" style="edgeStyle=orthogonalEdgeStyle;rounded=0;orthogonalLoop=1;jettySize=auto;html=1;" edge="1" parent="1" source="Z99bt3ekidvF5mvnGr2a-102" target="Z99bt3ekidvF5mvnGr2a-83">
          <mxGeometry relative="1" as="geometry" />
        </mxCell>
        <mxCell id="Z99bt3ekidvF5mvnGr2a-102" value="L1" style="ellipse;whiteSpace=wrap;html=1;aspect=fixed;" vertex="1" parent="1">
          <mxGeometry x="30" y="1220" width="80" height="80" as="geometry" />
        </mxCell>
        <mxCell id="Z99bt3ekidvF5mvnGr2a-107" value="&lt;span style=&quot;color: rgb(0, 0, 0); font-family: Helvetica; font-size: 12px; font-style: normal; font-variant-ligatures: normal; font-variant-caps: normal; font-weight: 400; letter-spacing: normal; orphans: 2; text-align: center; text-indent: 0px; text-transform: none; widows: 2; word-spacing: 0px; -webkit-text-stroke-width: 0px; white-space: normal; background-color: rgb(251, 251, 251); text-decoration-thickness: initial; text-decoration-style: initial; text-decoration-color: initial; float: none; display: inline !important;&quot;&gt;grape&lt;/span&gt;" style="rounded=0;whiteSpace=wrap;html=1;" vertex="1" parent="1">
          <mxGeometry x="550" y="1480" width="72.5" height="70" as="geometry" />
        </mxCell>
        <mxCell id="Z99bt3ekidvF5mvnGr2a-114" style="edgeStyle=orthogonalEdgeStyle;rounded=0;orthogonalLoop=1;jettySize=auto;html=1;entryX=0;entryY=1;entryDx=0;entryDy=0;" edge="1" parent="1" source="Z99bt3ekidvF5mvnGr2a-108" target="Z99bt3ekidvF5mvnGr2a-95">
          <mxGeometry relative="1" as="geometry" />
        </mxCell>
        <mxCell id="Z99bt3ekidvF5mvnGr2a-115" value="insert" style="edgeLabel;html=1;align=center;verticalAlign=middle;resizable=0;points=[];" vertex="1" connectable="0" parent="Z99bt3ekidvF5mvnGr2a-114">
          <mxGeometry x="0.0875" y="2" relative="1" as="geometry">
            <mxPoint as="offset" />
          </mxGeometry>
        </mxCell>
        <mxCell id="Z99bt3ekidvF5mvnGr2a-108" value="5" style="rounded=0;whiteSpace=wrap;html=1;" vertex="1" parent="1">
          <mxGeometry x="550" y="1450" width="72.5" height="30" as="geometry" />
        </mxCell>
        <mxCell id="Z99bt3ekidvF5mvnGr2a-109" value="-1" style="rounded=0;whiteSpace=wrap;html=1;" vertex="1" parent="1">
          <mxGeometry x="550" y="1550" width="72.5" height="30" as="geometry" />
        </mxCell>
        <mxCell id="Z99bt3ekidvF5mvnGr2a-110" style="edgeStyle=orthogonalEdgeStyle;rounded=0;orthogonalLoop=1;jettySize=auto;html=1;entryX=1.021;entryY=0.363;entryDx=0;entryDy=0;entryPerimeter=0;" edge="1" parent="1" source="Z99bt3ekidvF5mvnGr2a-108" target="Z99bt3ekidvF5mvnGr2a-88">
          <mxGeometry relative="1" as="geometry">
            <Array as="points">
              <mxPoint x="586" y="1355" />
            </Array>
          </mxGeometry>
        </mxCell>
        <mxCell id="Z99bt3ekidvF5mvnGr2a-111" value="append" style="edgeLabel;html=1;align=center;verticalAlign=middle;resizable=0;points=[];" vertex="1" connectable="0" parent="Z99bt3ekidvF5mvnGr2a-110">
          <mxGeometry x="-0.1449" y="-1" relative="1" as="geometry">
            <mxPoint y="32" as="offset" />
          </mxGeometry>
        </mxCell>
        <mxCell id="Z99bt3ekidvF5mvnGr2a-116" value="melon" style="rounded=0;whiteSpace=wrap;html=1;" vertex="1" parent="1">
          <mxGeometry x="585" y="1190" width="72.5" height="70" as="geometry" />
        </mxCell>
        <mxCell id="Z99bt3ekidvF5mvnGr2a-117" value="&lt;meta charset=&quot;utf-8&quot;&gt;&lt;span style=&quot;color: rgb(0, 0, 0); font-family: Helvetica; font-size: 12px; font-style: normal; font-variant-ligatures: normal; font-variant-caps: normal; font-weight: 400; letter-spacing: normal; orphans: 2; text-align: center; text-indent: 0px; text-transform: none; widows: 2; word-spacing: 0px; -webkit-text-stroke-width: 0px; white-space: normal; background-color: rgb(251, 251, 251); text-decoration-thickness: initial; text-decoration-style: initial; text-decoration-color: initial; display: inline !important; float: none;&quot;&gt;peach&lt;/span&gt;" style="rounded=0;whiteSpace=wrap;html=1;" vertex="1" parent="1">
          <mxGeometry x="657.5" y="1190" width="72.5" height="70" as="geometry" />
        </mxCell>
        <mxCell id="Z99bt3ekidvF5mvnGr2a-118" value="6" style="rounded=0;whiteSpace=wrap;html=1;" vertex="1" parent="1">
          <mxGeometry x="585" y="1160" width="72.5" height="30" as="geometry" />
        </mxCell>
        <mxCell id="Z99bt3ekidvF5mvnGr2a-119" value="7" style="rounded=0;whiteSpace=wrap;html=1;" vertex="1" parent="1">
          <mxGeometry x="657.5" y="1160" width="72.5" height="30" as="geometry" />
        </mxCell>
        <mxCell id="Z99bt3ekidvF5mvnGr2a-120" value="" style="rounded=0;whiteSpace=wrap;html=1;" vertex="1" parent="1">
          <mxGeometry x="585" y="1260" width="72.5" height="30" as="geometry" />
        </mxCell>
        <mxCell id="Z99bt3ekidvF5mvnGr2a-121" value="" style="rounded=0;whiteSpace=wrap;html=1;" vertex="1" parent="1">
          <mxGeometry x="657.5" y="1260" width="72.5" height="30" as="geometry" />
        </mxCell>
        <mxCell id="Z99bt3ekidvF5mvnGr2a-122" style="edgeStyle=orthogonalEdgeStyle;rounded=0;orthogonalLoop=1;jettySize=auto;html=1;" edge="1" parent="1" source="Z99bt3ekidvF5mvnGr2a-116">
          <mxGeometry relative="1" as="geometry">
            <mxPoint x="522" y="1340" as="targetPoint" />
            <Array as="points">
              <mxPoint x="554" y="1225" />
              <mxPoint x="554" y="1340" />
              <mxPoint x="522" y="1340" />
            </Array>
          </mxGeometry>
        </mxCell>
        <mxCell id="Z99bt3ekidvF5mvnGr2a-123" value="extend" style="edgeLabel;html=1;align=center;verticalAlign=middle;resizable=0;points=[];" vertex="1" connectable="0" parent="Z99bt3ekidvF5mvnGr2a-122">
          <mxGeometry x="0.0836" y="1" relative="1" as="geometry">
            <mxPoint as="offset" />
          </mxGeometry>
        </mxCell>
        <mxCell id="Z99bt3ekidvF5mvnGr2a-127" value="" style="edgeStyle=orthogonalEdgeStyle;rounded=0;orthogonalLoop=1;jettySize=auto;html=1;" edge="1" parent="1" source="Z99bt3ekidvF5mvnGr2a-124" target="Z99bt3ekidvF5mvnGr2a-126">
          <mxGeometry relative="1" as="geometry" />
        </mxCell>
        <mxCell id="Z99bt3ekidvF5mvnGr2a-124" value="len(l1)" style="rounded=0;whiteSpace=wrap;html=1;" vertex="1" parent="1">
          <mxGeometry x="57.5" y="1520" width="52.5" height="30" as="geometry" />
        </mxCell>
        <mxCell id="Z99bt3ekidvF5mvnGr2a-126" value="length" style="rounded=0;whiteSpace=wrap;html=1;" vertex="1" parent="1">
          <mxGeometry x="190" y="1520" width="52.5" height="30" as="geometry" />
        </mxCell>
        <mxCell id="Z99bt3ekidvF5mvnGr2a-128" value=".sort() A-z" style="rounded=0;whiteSpace=wrap;html=1;" vertex="1" parent="1">
          <mxGeometry x="65" y="1600" width="75" height="30" as="geometry" />
        </mxCell>
        <mxCell id="Z99bt3ekidvF5mvnGr2a-129" value=".reverse()" style="rounded=0;whiteSpace=wrap;html=1;" vertex="1" parent="1">
          <mxGeometry x="65" y="1635" width="75" height="30" as="geometry" />
        </mxCell>
        <mxCell id="Z99bt3ekidvF5mvnGr2a-146" value="&lt;meta charset=&quot;utf-8&quot;&gt;&lt;span style=&quot;color: rgb(0, 0, 0); font-family: Helvetica; font-size: 12px; font-style: normal; font-variant-ligatures: normal; font-variant-caps: normal; font-weight: 400; letter-spacing: normal; orphans: 2; text-align: center; text-indent: 0px; text-transform: none; widows: 2; word-spacing: 0px; -webkit-text-stroke-width: 0px; white-space: normal; background-color: rgb(251, 251, 251); text-decoration-thickness: initial; text-decoration-style: initial; text-decoration-color: initial; display: inline !important; float: none;&quot;&gt;peach&lt;/span&gt;" style="rounded=0;whiteSpace=wrap;html=1;" vertex="1" parent="1">
          <mxGeometry x="137.5" y="1665" width="72.5" height="70" as="geometry" />
        </mxCell>
        <mxCell id="Z99bt3ekidvF5mvnGr2a-147" value="0" style="rounded=0;whiteSpace=wrap;html=1;" vertex="1" parent="1">
          <mxGeometry x="137.5" y="1635" width="72.5" height="30" as="geometry" />
        </mxCell>
        <mxCell id="Z99bt3ekidvF5mvnGr2a-148" value="-5" style="rounded=0;whiteSpace=wrap;html=1;" vertex="1" parent="1">
          <mxGeometry x="137.5" y="1735" width="72.5" height="30" as="geometry" />
        </mxCell>
        <mxCell id="Z99bt3ekidvF5mvnGr2a-158" value="melon" style="rounded=0;whiteSpace=wrap;html=1;" vertex="1" parent="1">
          <mxGeometry x="210" y="1665" width="72.5" height="70" as="geometry" />
        </mxCell>
        <mxCell id="Z99bt3ekidvF5mvnGr2a-159" value="1" style="rounded=0;whiteSpace=wrap;html=1;" vertex="1" parent="1">
          <mxGeometry x="210" y="1635" width="72.5" height="30" as="geometry" />
        </mxCell>
        <mxCell id="Z99bt3ekidvF5mvnGr2a-160" value="-4" style="rounded=0;whiteSpace=wrap;html=1;" vertex="1" parent="1">
          <mxGeometry x="210" y="1735" width="72.5" height="30" as="geometry" />
        </mxCell>
        <mxCell id="Z99bt3ekidvF5mvnGr2a-161" value="mango" style="rounded=0;whiteSpace=wrap;html=1;" vertex="1" parent="1">
          <mxGeometry x="283.75" y="1665" width="72.5" height="70" as="geometry" />
        </mxCell>
        <mxCell id="Z99bt3ekidvF5mvnGr2a-162" value="2" style="rounded=0;whiteSpace=wrap;html=1;" vertex="1" parent="1">
          <mxGeometry x="283.75" y="1635" width="72.5" height="30" as="geometry" />
        </mxCell>
        <mxCell id="Z99bt3ekidvF5mvnGr2a-163" value="-3" style="rounded=0;whiteSpace=wrap;html=1;" vertex="1" parent="1">
          <mxGeometry x="283.75" y="1735" width="72.5" height="30" as="geometry" />
        </mxCell>
        <mxCell id="Z99bt3ekidvF5mvnGr2a-164" value="&lt;meta charset=&quot;utf-8&quot;&gt;&lt;span style=&quot;color: rgb(0, 0, 0); font-family: Helvetica; font-size: 12px; font-style: normal; font-variant-ligatures: normal; font-variant-caps: normal; font-weight: 400; letter-spacing: normal; orphans: 2; text-align: center; text-indent: 0px; text-transform: none; widows: 2; word-spacing: 0px; -webkit-text-stroke-width: 0px; white-space: normal; background-color: rgb(251, 251, 251); text-decoration-thickness: initial; text-decoration-style: initial; text-decoration-color: initial; display: inline !important; float: none;&quot;&gt;banana&lt;/span&gt;" style="rounded=0;whiteSpace=wrap;html=1;" vertex="1" parent="1">
          <mxGeometry x="353" y="1665" width="72.5" height="70" as="geometry" />
        </mxCell>
        <mxCell id="Z99bt3ekidvF5mvnGr2a-165" value="3" style="rounded=0;whiteSpace=wrap;html=1;" vertex="1" parent="1">
          <mxGeometry x="353" y="1635" width="72.5" height="30" as="geometry" />
        </mxCell>
        <mxCell id="Z99bt3ekidvF5mvnGr2a-166" value="-2" style="rounded=0;whiteSpace=wrap;html=1;" vertex="1" parent="1">
          <mxGeometry x="353" y="1735" width="72.5" height="30" as="geometry" />
        </mxCell>
        <mxCell id="Z99bt3ekidvF5mvnGr2a-167" value="&lt;meta charset=&quot;utf-8&quot;&gt;&lt;span style=&quot;color: rgb(0, 0, 0); font-family: Helvetica; font-size: 12px; font-style: normal; font-variant-ligatures: normal; font-variant-caps: normal; font-weight: 400; letter-spacing: normal; orphans: 2; text-align: center; text-indent: 0px; text-transform: none; widows: 2; word-spacing: 0px; -webkit-text-stroke-width: 0px; white-space: normal; background-color: rgb(251, 251, 251); text-decoration-thickness: initial; text-decoration-style: initial; text-decoration-color: initial; display: inline !important; float: none;&quot;&gt;apple&lt;/span&gt;" style="rounded=0;whiteSpace=wrap;html=1;" vertex="1" parent="1">
          <mxGeometry x="425.5" y="1665" width="72.5" height="70" as="geometry" />
        </mxCell>
        <mxCell id="Z99bt3ekidvF5mvnGr2a-168" value="4" style="rounded=0;whiteSpace=wrap;html=1;" vertex="1" parent="1">
          <mxGeometry x="425.5" y="1635" width="72.5" height="30" as="geometry" />
        </mxCell>
        <mxCell id="Z99bt3ekidvF5mvnGr2a-169" value="-1" style="rounded=0;whiteSpace=wrap;html=1;" vertex="1" parent="1">
          <mxGeometry x="425.5" y="1735" width="72.5" height="30" as="geometry" />
        </mxCell>
        <mxCell id="Z99bt3ekidvF5mvnGr2a-170" value=".clear" style="rounded=0;whiteSpace=wrap;html=1;" vertex="1" parent="1">
          <mxGeometry x="57.5" y="1800" width="75" height="30" as="geometry" />
        </mxCell>
        <mxCell id="Z99bt3ekidvF5mvnGr2a-171" value="Tuple" style="rounded=1;whiteSpace=wrap;html=1;arcSize=50;fillColor=#bac8d3;strokeColor=#23445d;" vertex="1" parent="1">
          <mxGeometry x="335" y="1850" width="120" height="60" as="geometry" />
        </mxCell>
        <mxCell id="Z99bt3ekidvF5mvnGr2a-172" value="immutable list" style="rounded=0;whiteSpace=wrap;html=1;fillColor=#b1ddf0;strokeColor=#10739e;" vertex="1" parent="1">
          <mxGeometry x="65" y="1930" width="120" height="60" as="geometry" />
        </mxCell>
        <mxCell id="Z99bt3ekidvF5mvnGr2a-173" value="1" style="rounded=0;whiteSpace=wrap;html=1;fillColor=#b1ddf0;strokeColor=#10739e;" vertex="1" parent="1">
          <mxGeometry x="208.75" y="2010" width="120" height="60" as="geometry" />
        </mxCell>
        <mxCell id="Z99bt3ekidvF5mvnGr2a-174" value="2" style="rounded=0;whiteSpace=wrap;html=1;fillColor=#b1ddf0;strokeColor=#10739e;" vertex="1" parent="1">
          <mxGeometry x="328.75" y="2010" width="120" height="60" as="geometry" />
        </mxCell>
        <mxCell id="Z99bt3ekidvF5mvnGr2a-175" value="3" style="rounded=0;whiteSpace=wrap;html=1;fillColor=#b1ddf0;strokeColor=#10739e;" vertex="1" parent="1">
          <mxGeometry x="448.75" y="2010" width="120" height="60" as="geometry" />
        </mxCell>
        <mxCell id="Z99bt3ekidvF5mvnGr2a-177" value="&lt;div&gt;&lt;br&gt;&lt;/div&gt;&lt;div&gt;&lt;br&gt;&lt;br&gt;cannot change&amp;nbsp;&lt;br&gt;&lt;br&gt;&lt;br&gt;&lt;br&gt;&lt;br&gt;&lt;/div&gt;" style="shape=mxgraph.mockup.markup.redX;fillColor=#ff0000;html=1;shadow=0;whiteSpace=wrap;strokeColor=none;align=left;verticalAlign=bottom;" vertex="1" parent="1">
          <mxGeometry x="570" y="1980" width="40" height="50" as="geometry" />
        </mxCell>
        <mxCell id="Z99bt3ekidvF5mvnGr2a-178" value="set" style="rounded=1;whiteSpace=wrap;html=1;arcSize=50;fillColor=#bac8d3;strokeColor=#23445d;" vertex="1" parent="1">
          <mxGeometry x="300" y="2210" width="120" height="60" as="geometry" />
        </mxCell>
        <mxCell id="Z99bt3ekidvF5mvnGr2a-181" value="1" style="rounded=0;whiteSpace=wrap;html=1;fillColor=#b1ddf0;strokeColor=#10739e;" vertex="1" parent="1">
          <mxGeometry x="306.25" y="2360" width="120" height="60" as="geometry" />
        </mxCell>
        <mxCell id="Z99bt3ekidvF5mvnGr2a-182" value="2" style="rounded=0;whiteSpace=wrap;html=1;fillColor=#b1ddf0;strokeColor=#10739e;" vertex="1" parent="1">
          <mxGeometry x="186.25" y="2360" width="120" height="60" as="geometry" />
        </mxCell>
        <mxCell id="Z99bt3ekidvF5mvnGr2a-184" value="3" style="rounded=0;whiteSpace=wrap;html=1;fillColor=#b1ddf0;strokeColor=#10739e;" vertex="1" parent="1">
          <mxGeometry x="426.25" y="2360" width="120" height="60" as="geometry" />
        </mxCell>
        <mxCell id="Z99bt3ekidvF5mvnGr2a-185" value="lists" style="ellipse;whiteSpace=wrap;html=1;aspect=fixed;" vertex="1" parent="1">
          <mxGeometry x="233.75" y="2500" width="360" height="360" as="geometry" />
        </mxCell>
        <mxCell id="Z99bt3ekidvF5mvnGr2a-186" value="tuple" style="ellipse;whiteSpace=wrap;html=1;aspect=fixed;" vertex="1" parent="1">
          <mxGeometry x="440" y="2720" width="110" height="110" as="geometry" />
        </mxCell>
        <mxCell id="Z99bt3ekidvF5mvnGr2a-187" value="set" style="ellipse;whiteSpace=wrap;html=1;aspect=fixed;" vertex="1" parent="1">
          <mxGeometry x="242.5" y="2550" width="160" height="160" as="geometry" />
        </mxCell>
        <mxCell id="Z99bt3ekidvF5mvnGr2a-188" value="" style="shape=flexArrow;endArrow=classic;html=1;rounded=0;" edge="1" parent="1">
          <mxGeometry width="50" height="50" relative="1" as="geometry">
            <mxPoint x="402.5" y="2670" as="sourcePoint" />
            <mxPoint x="350" y="2620" as="targetPoint" />
            <Array as="points">
              <mxPoint x="382.5" y="2650" />
            </Array>
          </mxGeometry>
        </mxCell>
        <mxCell id="Z99bt3ekidvF5mvnGr2a-190" value="duplicates" style="edgeLabel;html=1;align=center;verticalAlign=middle;resizable=0;points=[];" vertex="1" connectable="0" parent="Z99bt3ekidvF5mvnGr2a-188">
          <mxGeometry x="-0.0412" y="-3" relative="1" as="geometry">
            <mxPoint as="offset" />
          </mxGeometry>
        </mxCell>
        <mxCell id="Z99bt3ekidvF5mvnGr2a-189" value="" style="shape=flexArrow;endArrow=classic;html=1;rounded=0;" edge="1" parent="1">
          <mxGeometry width="50" height="50" relative="1" as="geometry">
            <mxPoint x="488" y="2750" as="sourcePoint" />
            <mxPoint x="435.5" y="2700" as="targetPoint" />
            <Array as="points">
              <mxPoint x="468" y="2730" />
            </Array>
          </mxGeometry>
        </mxCell>
        <mxCell id="Z99bt3ekidvF5mvnGr2a-191" value="" style="shape=flexArrow;endArrow=classic;html=1;rounded=0;" edge="1" parent="1">
          <mxGeometry width="50" height="50" relative="1" as="geometry">
            <mxPoint x="410" y="2690" as="sourcePoint" />
            <mxPoint x="490" y="2800" as="targetPoint" />
            <Array as="points">
              <mxPoint x="467.5" y="2770" />
            </Array>
          </mxGeometry>
        </mxCell>
        <mxCell id="Z99bt3ekidvF5mvnGr2a-192" value="fucntions" style="edgeLabel;html=1;align=center;verticalAlign=middle;resizable=0;points=[];" vertex="1" connectable="0" parent="Z99bt3ekidvF5mvnGr2a-191">
          <mxGeometry x="0.0896" y="2" relative="1" as="geometry">
            <mxPoint as="offset" />
          </mxGeometry>
        </mxCell>
        <mxCell id="Z99bt3ekidvF5mvnGr2a-193" value="0-255" style="rounded=0;whiteSpace=wrap;html=1;" vertex="1" parent="1">
          <mxGeometry x="70" y="3090" width="120" height="60" as="geometry" />
        </mxCell>
        <mxCell id="Z99bt3ekidvF5mvnGr2a-194" value="0-255" style="rounded=0;whiteSpace=wrap;html=1;" vertex="1" parent="1">
          <mxGeometry x="498" y="3090" width="120" height="60" as="geometry" />
        </mxCell>
        <mxCell id="Z99bt3ekidvF5mvnGr2a-195" value="0-255" style="rounded=0;whiteSpace=wrap;html=1;" vertex="1" parent="1">
          <mxGeometry x="215" y="3090" width="120" height="60" as="geometry" />
        </mxCell>
        <mxCell id="Z99bt3ekidvF5mvnGr2a-196" value="0-255" style="rounded=0;whiteSpace=wrap;html=1;" vertex="1" parent="1">
          <mxGeometry x="360" y="3090" width="120" height="60" as="geometry" />
        </mxCell>
        <mxCell id="Z99bt3ekidvF5mvnGr2a-197" value="&lt;span style=&quot;color: rgb(232, 232, 232); font-family: Arial, sans-serif; font-size: 20px; text-align: left; background-color: rgb(32, 33, 36);&quot;&gt;213.57.17.130&lt;/span&gt;" style="rounded=0;whiteSpace=wrap;html=1;" vertex="1" parent="1">
          <mxGeometry x="200" y="3170" width="320" height="60" as="geometry" />
        </mxCell>
        <mxCell id="Z99bt3ekidvF5mvnGr2a-198" value="/24" style="rounded=0;whiteSpace=wrap;html=1;" vertex="1" parent="1">
          <mxGeometry x="522.5" y="3170" width="120" height="60" as="geometry" />
        </mxCell>
        <mxCell id="Z99bt3ekidvF5mvnGr2a-199" value="&lt;span style=&quot;color: rgb(232, 232, 232); font-family: Arial, sans-serif; font-size: 20px; text-align: left; background-color: rgb(32, 33, 36);&quot;&gt;213.57.17.130&lt;/span&gt;" style="rounded=0;whiteSpace=wrap;html=1;" vertex="1" parent="1">
          <mxGeometry x="202.5" y="3230" width="320" height="60" as="geometry" />
        </mxCell>
        <mxCell id="Z99bt3ekidvF5mvnGr2a-200" value="/16" style="rounded=0;whiteSpace=wrap;html=1;" vertex="1" parent="1">
          <mxGeometry x="522.5" y="3230" width="120" height="60" as="geometry" />
        </mxCell>
      </root>
    </mxGraphModel>
  </diagram>
</mxfile>
